<svg viewBox="0 0 330 200" xmlns="http://www.w3.org/2000/svg"><g><g><g><g><g><line x1="20.390625" y1="133.7968016709107" x2="15.390625" y2="133.7968016709107" style="visibility: inherit;" fill="rgb(0, 0, 0)" stroke="rgb(204, 204, 204)" stroke-width="1px"></line><line x1="20.390625" y1="87.33925293177276" x2="15.390625" y2="87.33925293177276" style="visibility: inherit;" fill="rgb(0, 0, 0)" stroke="rgb(204, 204, 204)" stroke-width="1px"></line><line x1="20.390625" y1="51.30397856568653" x2="15.390625" y2="51.30397856568653" style="visibility: inherit;" fill="rgb(0, 0, 0)" stroke="rgb(204, 204, 204)" stroke-width="1px"></line><line x1="20.390625" y1="21.861015579627093" x2="15.390625" y2="21.861015579627093" style="visibility: inherit;" fill="rgb(0, 0, 0)" stroke="rgb(204, 204, 204)" stroke-width="1px"></line></g><g transform="translate(10.390625, 0)"><text x="0" y="133.7968016709107" dx="0em" dy="0.3em" style="text-anchor: end; visibility: inherit; font-family: Roboto, sans-serif; font-size: 12px; font-weight: 200;" fill="rgb(33, 33, 33)" stroke="none" stroke-width="1px">3</text><text x="0" y="87.33925293177276" dx="0em" dy="0.3em" style="text-anchor: end; visibility: inherit; font-family: Roboto, sans-serif; font-size: 12px; font-weight: 200;" fill="rgb(33, 33, 33)" stroke="none" stroke-width="1px">4</text><text x="0" y="51.30397856568653" dx="0em" dy="0.3em" style="text-anchor: end; visibility: inherit; font-family: Roboto, sans-serif; font-size: 12px; font-weight: 200;" fill="rgb(33, 33, 33)" stroke="none" stroke-width="1px">5</text><text x="0" y="21.861015579627093" dx="0em" dy="0.3em" style="text-anchor: end; visibility: inherit; font-family: Roboto, sans-serif; font-size: 12px; font-weight: 200;" fill="rgb(33, 33, 33)" stroke="none" stroke-width="1px">6</text></g><line x1="20.390625" y1="0" x2="20.390625" y2="177" fill="rgb(0, 0, 0)" stroke="rgb(204, 204, 204)" stroke-width="1px"></line></g></g><g transform="translate(20, 0)" clip-path="url(#clip_0)"><clipPath id="clip_0"><rect width="309" height="177"></rect></clipPath><g><g><g><line x1="0" y1="0" x2="0" y2="177" fill="rgb(0, 0, 0)" stroke="rgb(66, 66, 66)" stroke-width="1px" opacity="0.25"></line><line x1="28.14630681818182" y1="0" x2="28.14630681818182" y2="177" fill="rgb(0, 0, 0)" stroke="rgb(66, 66, 66)" stroke-width="1px" opacity="0.25"></line><line x1="56.29261363636364" y1="0" x2="56.29261363636364" y2="177" fill="rgb(0, 0, 0)" stroke="rgb(66, 66, 66)" stroke-width="1px" opacity="0.25"></line><line x1="84.43892045454545" y1="0" x2="84.43892045454545" y2="177" fill="rgb(0, 0, 0)" stroke="rgb(66, 66, 66)" stroke-width="1px" opacity="0.25"></line><line x1="112.58522727272728" y1="0" x2="112.58522727272728" y2="177" fill="rgb(0, 0, 0)" stroke="rgb(66, 66, 66)" stroke-width="1px" opacity="0.25"></line><line x1="140.7315340909091" y1="0" x2="140.7315340909091" y2="177" fill="rgb(0, 0, 0)" stroke="rgb(66, 66, 66)" stroke-width="1px" opacity="0.25"></line><line x1="168.8778409090909" y1="0" x2="168.8778409090909" y2="177" fill="rgb(0, 0, 0)" stroke="rgb(66, 66, 66)" stroke-width="1px" opacity="0.25"></line><line x1="197.02414772727272" y1="0" x2="197.02414772727272" y2="177" fill="rgb(0, 0, 0)" stroke="rgb(66, 66, 66)" stroke-width="1px" opacity="0.25"></line><line x1="225.17045454545456" y1="0" x2="225.17045454545456" y2="177" fill="rgb(0, 0, 0)" stroke="rgb(66, 66, 66)" stroke-width="1px" opacity="0.25"></line><line x1="253.31676136363637" y1="0" x2="253.31676136363637" y2="177" fill="rgb(0, 0, 0)" stroke="rgb(66, 66, 66)" stroke-width="1px" opacity="0.25"></line><line x1="281.4630681818182" y1="0" x2="281.4630681818182" y2="177" fill="rgb(0, 0, 0)" stroke="rgb(66, 66, 66)" stroke-width="1px" opacity="0.25"></line><line x1="309.609375" y1="0" x2="309.609375" y2="177" fill="rgb(0, 0, 0)" stroke="rgb(66, 66, 66)" stroke-width="1px" opacity="0.25"></line></g><g><line x1="0" y1="133.7968016709107" x2="309.609375" y2="133.7968016709107" fill="rgb(0, 0, 0)" stroke="rgb(66, 66, 66)" stroke-width="1px" opacity="0.25"></line><line x1="0" y1="87.33925293177276" x2="309.609375" y2="87.33925293177276" fill="rgb(0, 0, 0)" stroke="rgb(66, 66, 66)" stroke-width="1px" opacity="0.25"></line><line x1="0" y1="51.30397856568653" x2="309.609375" y2="51.30397856568653" fill="rgb(0, 0, 0)" stroke="rgb(66, 66, 66)" stroke-width="1px" opacity="0.25"></line><line x1="0" y1="21.861015579627093" x2="309.609375" y2="21.861015579627093" fill="rgb(0, 0, 0)" stroke="rgb(66, 66, 66)" stroke-width="1px" opacity="0.25"></line></g></g></g><g><g><line x1="0" y1="0" x2="0" y2="177" fill="rgb(0, 0, 0)" stroke="rgb(153, 153, 153)" stroke-width="1.5px"></line></g></g><g><g><g><g><g><path stroke="rgb(204, 51, 17)" stroke-width="2px" d="M7.036576704545455,-21.341717410998488L14.07315340909091,6.071070977887301L21.109730113636363,21.115451367238226L28.14630681818182,33.46059831991227L35.18288352272727,43.50552807940381L42.21946022727273,52.223074013311226L49.25603693181818,59.785413772451946L56.29261363636364,66.85908467258147L7.036576704545455,25.285714285714274L14.07315340909091,25.19987781962899L21.109730113636363,29.837600496140603L28.14630681818182,37.36018955056846L35.18288352272727,45.17871418500858L42.21946022727273,52.866720927199125L49.25603693181818,59.976105071830894L56.29261363636364,66.85908467258147L63.32919034090909,73.68671303375817L70.36576704545455,79.81993522518329L77.40234375,85.1954525829384L84.43892045454545,90.49400566635387L91.47549715909092,95.28397532396613L98.51207386363636,99.39809897649397L105.54865056818181,102.4108570180994L112.58522727272728,105.68867975541474L119.62180397727272,108.53030452465606L126.65838068181819,111.00794545425113L133.69495738636363,113.36382253086128L140.7315340909091,115.26551647894338L147.76811079545456,117.0772107478068L154.8046875,118.69395694857172L161.84126420454544,120.13926067831798L168.8778409090909,121.41661242159414L175.91441761363637,122.30712543526262L182.95099431818184,123.3683785524346L189.98757102272728,124.53419065474479L197.02414772727272,125.25614839962797L204.06072443181816,126.12037126367186L211.09730113636363,126.95759053558061L218.1338778409091,127.6835357149917L225.17045454545456,128.2870885521147L232.20703125,128.72225037766316L239.24360795454544,129.12927714597706L246.2801846590909,129.75602954170674L253.31676136363637,130.13488792454075L260.3533380681818,130.33929318111606L267.38991477272725,130.5563206151638L274.42649147727275,130.99785461360153L281.4630681818182,131.1359567497279L288.4996448863636,131.31112585879478L7.036576704545455,52.46863277689561L14.07315340909091,40.94675865543044L21.109730113636363,39.36022803127596L28.14630681818182,43.26295799714396L35.18288352272727,48.86012793177866L42.21946022727273,55.167201468862935L49.25603693181818,61.41123184079835L56.29261363636364,67.75416614323007L63.32919034090909,74.24518907680634L70.36576704545455,80.16712881315996L77.40234375,85.41039825316999L84.43892045454545,90.62704394257027L91.47549715909092,95.36608175865996L98.51207386363636,99.44857421090848L105.54865056818181,102.44168656955458L112.58522727272728,105.70754038910663L119.62180397727272,108.54181338167157L126.65838068181819,111.0149531730291L133.69495738636363,113.36808648561612L140.7315340909091,115.26810396906814L147.76811079545456,117.07878008062427L154.8046875,118.69490766137802L161.84126420454544,120.13983604091528L168.8778409090909,121.41696027828333L175.91441761363637,122.307335260653L182.95099431818184,123.36850524719586L189.98757102272728,124.53426720223744L197.02414772727272,125.25619452644473L204.06072443181816,126.12039908290545L211.09730113636363,126.95760731076315L218.1338778409091,127.68354582382777L225.17045454545456,128.28709463931892L232.20703125,128.72225403949128L239.24360795454544,129.12927934842247L246.2801846590909,129.75603086813135L253.31676136363637,130.13488872219907L260.3533380681818,130.339293660296L267.38991477272725,130.55632090304482L274.42649147727275,130.9978547867865L281.4630681818182,131.13595685372474L288.4996448863636,131.3111259212582" style="fill: none;" fill="none"></path></g><g><path stroke="rgb(0, 119, 187)" stroke-width="2px" d="M7.036576704545455,-24.688603755438848L14.07315340909091,7.345297599352554L21.109730113636363,20.050277372944027L28.14630681818182,34.79914239765342L35.18288352272727,47.83541090466672L42.21946022727273,53.03160010116662L49.25603693181818,51.24700812310534L56.29261363636364,58.75822542162878L7.036576704545455,19.7314165067342L14.07315340909091,23.839950249237205L21.109730113636363,27.558251735656565L28.14630681818182,37.667930818251214L35.18288352272727,48.645973959635576L42.21946022727273,53.29009993573317L49.25603693181818,51.44922990557983L56.29261363636364,58.75822542162878L63.32919034090909,60.35736915982551L70.36576704545455,74.28468567499253L77.40234375,81.99911574038794L84.43892045454545,96.87048336087966L91.47549715909092,103.27768920890072L98.51207386363636,87.08776547599027L105.54865056818181,100.26134851741273L112.58522727272728,106.88228145250879L119.62180397727272,120.33010718895052L126.65838068181819,127.41197024046511L133.69495738636363,133.20831162568916L140.7315340909091,125.26502450709893L147.76811079545456,126.07012791904002L154.8046875,120.5606124370773L161.84126420454544,112.76158749226747L168.8778409090909,115.35286695565372L175.91441761363637,127.61827057936438L182.95099431818184,133.80858881927364L189.98757102272728,133.2348582740307L197.02414772727272,140.83386275466864L204.06072443181816,135.30959653249246L211.09730113636363,124.0669394397943L218.1338778409091,125.86648762486908L225.17045454545456,124.81014116022266L232.20703125,123.57753559809044L239.24360795454544,132.78222617778832L246.2801846590909,138.891775434575L253.31676136363637,151.71428571428572L260.3533380681818,161.00447182621457L267.38991477272725,156.6241663613829L274.42649147727275,156.01848096991316L281.4630681818182,163.57009694942096L288.4996448863636,145.61384161713397L7.036576704545455,55.39872762907868L14.07315340909091,44.816738828482386L21.109730113636363,40.09684095925063L28.14630681818182,45.54015884980206L35.18288352272727,53.64197607899527L42.21946022727273,56.35309842306234L49.25603693181818,53.260050681203566L56.29261363636364,59.89052348176488L63.32919034090909,61.04228747637114L70.36576704545455,74.73084138658255L77.40234375,82.27928126604697L84.43892045454545,97.05417302566181L91.47549715909092,103.39219574117038L98.51207386363636,87.1501083346535L105.54865056818181,100.30182238314578L112.58522727272728,106.90754888420912L119.62180397727272,120.34654385082976L126.65838068181819,127.42226179794669L133.69495738636363,133.2147061054999L140.7315340909091,125.2686817721569L147.76811079545456,126.07233293804958L154.8046875,120.56189226649481L161.84126420454544,112.76232019469397L168.8778409090909,115.3533134799498L175.91441761363637,127.61855902659266L182.95099431818184,133.8087684697179L189.98757102272728,133.23496569184636L197.02414772727272,140.83393023036342L204.06072443181816,135.30963568999982L211.09730113636363,124.06696139460591L218.1338778409091,125.86650094133647L225.17045454545456,124.81014909941699L232.20703125,123.5775403263715L239.24360795454544,132.7822291765998L246.2801846590909,138.8917773014397L253.31676136363637,151.71428692465813L260.3533380681818,161.00447259444746L267.38991477272725,156.62416681025746L274.42649147727275,156.01848123825226L281.4630681818182,163.57009711795854L288.4996448863636,145.61384170784407" style="fill: none;" fill="none"></path></g></g></g></g><g opacity="0.2"><g><g><g><path stroke="rgb(204, 51, 17)" stroke-width="2px" d="M7.036576704545455,-21.341717410998488L14.07315340909091,25.072504784238458L21.109730113636363,37.00927972407794L28.14630681818182,49.299807473304405L35.18288352272727,57.637340530660026L42.21946022727273,65.11519617672191L49.25603693181818,71.25470186657489L56.29261363636364,77.7616659194627L7.036576704545455,-21.341717410998488L14.07315340909091,25.072504784238458L21.109730113636363,37.00927972407794L28.14630681818182,49.299807473304405L35.18288352272727,57.637340530660026L42.21946022727273,65.11519617672191L49.25603693181818,71.25470186657489L56.29261363636364,77.7616659194627L63.32919034090909,84.49879042161899L70.36576704545455,89.4782643590256L77.40234375,93.60901467005773L84.43892045454545,98.78226775266552L91.47549715909092,102.74606066210377L98.51207386363636,105.77260010215313L105.54865056818181,107.0380145837305L112.58522727272728,110.7335999973454L119.62180397727272,112.88873316481451L126.65838068181819,114.79716220411028L133.69495738636363,116.96335399701167L140.7315340909091,118.16071465421071L147.76811079545456,119.83343905229346L154.8046875,121.1498353018435L161.84126420454544,122.33176265444753L168.8778409090909,123.35178623340254L175.91441761363637,123.65217052680525L182.95099431818184,124.9734504759558L189.98757102272728,126.29884256669868L197.02414772727272,126.34517306523081L204.06072443181816,127.42543971444898L211.09730113636363,128.2216144708858L218.1338778409091,128.7786091867617L225.17045454545456,129.1966684922545L232.20703125,129.3771997126128L239.24360795454544,129.74174733736558L246.2801846590909,130.70074276374615L253.31676136363637,130.7048472536438L260.3533380681818,130.64638699802754L267.38991477272725,130.88240962179037L274.42649147727275,131.6624274253235L281.4630681818182,131.34333164799742L288.4996448863636,131.574236303194L7.036576704545455,-21.341717410998488L14.07315340909091,25.072504784238458L21.109730113636363,37.00927972407794L28.14630681818182,49.299807473304405L35.18288352272727,57.637340530660026L42.21946022727273,65.11519617672191L49.25603693181818,71.25470186657489L56.29261363636364,77.7616659194627L63.32919034090909,84.49879042161899L70.36576704545455,89.4782643590256L77.40234375,93.60901467005773L84.43892045454545,98.78226775266552L91.47549715909092,102.74606066210377L98.51207386363636,105.77260010215313L105.54865056818181,107.0380145837305L112.58522727272728,110.7335999973454L119.62180397727272,112.88873316481451L126.65838068181819,114.79716220411028L133.69495738636363,116.96335399701167L140.7315340909091,118.16071465421071L147.76811079545456,119.83343905229346L154.8046875,121.1498353018435L161.84126420454544,122.33176265444753L168.8778409090909,123.35178623340254L175.91441761363637,123.65217052680525L182.95099431818184,124.9734504759558L189.98757102272728,126.29884256669868L197.02414772727272,126.34517306523081L204.06072443181816,127.42543971444898L211.09730113636363,128.2216144708858L218.1338778409091,128.7786091867617L225.17045454545456,129.1966684922545L232.20703125,129.3771997126128L239.24360795454544,129.74174733736558L246.2801846590909,130.70074276374615L253.31676136363637,130.7048472536438L260.3533380681818,130.64638699802754L267.38991477272725,130.88240962179037L274.42649147727275,131.6624274253235L281.4630681818182,131.34333164799742L288.4996448863636,131.574236303194" style="fill: none;" fill="none"></path></g><g><path stroke="rgb(0, 119, 187)" stroke-width="2px" d="M7.036576704545455,-24.688603755438848L14.07315340909091,30.14022740780508L21.109730113636363,33.265984430750535L28.14630681818182,54.06542629353864L35.18288352272727,66.61187879876458L42.21946022727273,60.50708127361842L49.25603693181818,48.72879861187436L56.29261363636364,70.37642026899798L7.036576704545455,-24.688603755438848L14.07315340909091,30.14022740780508L21.109730113636363,33.265984430750535L28.14630681818182,54.06542629353864L35.18288352272727,66.61187879876458L42.21946022727273,60.50708127361842L49.25603693181818,48.72879861187436L56.29261363636364,70.37642026899798L63.32919034090909,62.785483759709045L70.36576704545455,97.72045343331527L77.40234375,94.30779163047718L84.43892045454545,122.10883476222483L91.47549715909092,113.3915434660242L98.51207386363636,65.49164998112543L105.54865056818181,122.28566095458474L112.58522727272728,117.35218426908934L119.62180397727272,142.86741012498393L126.65838068181819,138.65344340588015L133.69495738636363,142.31261018918573L140.7315340909091,114.03786827205597L147.76811079545456,127.28535863076439L154.8046875,112.63351207596729L161.84126420454544,101.72679417218308L168.8778409090909,119.31945653738693L175.91441761363637,147.9623880050878L182.95099431818184,143.56308990725162L189.98757102272728,132.37806632125387L197.02414772727272,152.9480312118885L204.06072443181816,127.36213598583524L211.09730113636363,108.54685269659558L218.1338778409091,128.60397758405733L225.17045454545456,123.23846553126191L232.20703125,121.74609002336514L239.24360795454544,147.65462950006602L246.2801846590909,148.5126395656916L253.31676136363637,173.08608315259383L260.3533380681818,176.02584580641928L267.38991477272725,150.26873428117085L274.42649147727275,155.11419113352594L281.4630681818182,175.60398561826844L288.4996448863636,121.94531990078202L7.036576704545455,-24.688603755438848L14.07315340909091,30.14022740780508L21.109730113636363,33.265984430750535L28.14630681818182,54.06542629353864L35.18288352272727,66.61187879876458L42.21946022727273,60.50708127361842L49.25603693181818,48.72879861187436L56.29261363636364,70.37642026899798L63.32919034090909,62.785483759709045L70.36576704545455,97.72045343331527L77.40234375,94.30779163047718L84.43892045454545,122.10883476222483L91.47549715909092,113.3915434660242L98.51207386363636,65.49164998112543L105.54865056818181,122.28566095458474L112.58522727272728,117.35218426908934L119.62180397727272,142.86741012498393L126.65838068181819,138.65344340588015L133.69495738636363,142.31261018918573L140.7315340909091,114.03786827205597L147.76811079545456,127.28535863076439L154.8046875,112.63351207596729L161.84126420454544,101.72679417218308L168.8778409090909,119.31945653738693L175.91441761363637,147.9623880050878L182.95099431818184,143.56308990725162L189.98757102272728,132.37806632125387L197.02414772727272,152.9480312118885L204.06072443181816,127.36213598583524L211.09730113636363,108.54685269659558L218.1338778409091,128.60397758405733L225.17045454545456,123.23846553126191L232.20703125,121.74609002336514L239.24360795454544,147.65462950006602L246.2801846590909,148.5126395656916L253.31676136363637,173.08608315259383L260.3533380681818,176.02584580641928L267.38991477272725,150.26873428117085L274.42649147727275,155.11419113352594L281.4630681818182,175.60398561826844L288.4996448863636,121.94531990078202" style="fill: none;" fill="none"></path></g></g></g></g></g></g><g transform="translate(20, 177)" clip-path="url(#clip_1)"><clipPath id="clip_1"><rect width="309" height="23"></rect></clipPath><g><g><line x1="0" y1="0" x2="0" y2="5" style="visibility: inherit;" fill="rgb(0, 0, 0)" stroke="rgb(204, 204, 204)" stroke-width="1px"></line><line x1="28.14630681818182" y1="0" x2="28.14630681818182" y2="5" style="visibility: inherit;" fill="rgb(0, 0, 0)" stroke="rgb(204, 204, 204)" stroke-width="1px"></line><line x1="56.29261363636364" y1="0" x2="56.29261363636364" y2="5" style="visibility: inherit;" fill="rgb(0, 0, 0)" stroke="rgb(204, 204, 204)" stroke-width="1px"></line><line x1="84.43892045454545" y1="0" x2="84.43892045454545" y2="5" style="visibility: inherit;" fill="rgb(0, 0, 0)" stroke="rgb(204, 204, 204)" stroke-width="1px"></line><line x1="112.58522727272728" y1="0" x2="112.58522727272728" y2="5" style="visibility: inherit;" fill="rgb(0, 0, 0)" stroke="rgb(204, 204, 204)" stroke-width="1px"></line><line x1="140.7315340909091" y1="0" x2="140.7315340909091" y2="5" style="visibility: inherit;" fill="rgb(0, 0, 0)" stroke="rgb(204, 204, 204)" stroke-width="1px"></line><line x1="168.8778409090909" y1="0" x2="168.8778409090909" y2="5" style="visibility: inherit;" fill="rgb(0, 0, 0)" stroke="rgb(204, 204, 204)" stroke-width="1px"></line><line x1="197.02414772727272" y1="0" x2="197.02414772727272" y2="5" style="visibility: inherit;" fill="rgb(0, 0, 0)" stroke="rgb(204, 204, 204)" stroke-width="1px"></line><line x1="225.17045454545456" y1="0" x2="225.17045454545456" y2="5" style="visibility: inherit;" fill="rgb(0, 0, 0)" stroke="rgb(204, 204, 204)" stroke-width="1px"></line><line x1="253.31676136363637" y1="0" x2="253.31676136363637" y2="5" style="visibility: inherit;" fill="rgb(0, 0, 0)" stroke="rgb(204, 204, 204)" stroke-width="1px"></line><line x1="281.4630681818182" y1="0" x2="281.4630681818182" y2="5" style="visibility: inherit;" fill="rgb(0, 0, 0)" stroke="rgb(204, 204, 204)" stroke-width="1px"></line><line x1="309.609375" y1="0" x2="309.609375" y2="5" style="visibility: inherit;" fill="rgb(0, 0, 0)" stroke="rgb(204, 204, 204)" stroke-width="1px"></line></g><g transform="translate(0, 8)"><text x="0" y="0" dx="0em" dy="0.95em" style="text-anchor: middle; visibility: hidden; font-family: Roboto, sans-serif; font-size: 12px; font-weight: 200;" fill="rgb(33, 33, 33)" stroke="none" stroke-width="1px">0</text><text x="28.14630681818182" y="0" dx="0em" dy="0.95em" style="text-anchor: middle; visibility: inherit; font-family: Roboto, sans-serif; font-size: 12px; font-weight: 200;" fill="rgb(33, 33, 33)" stroke="none" stroke-width="1px">2k</text><text x="56.29261363636364" y="0" dx="0em" dy="0.95em" style="text-anchor: middle; visibility: inherit; font-family: Roboto, sans-serif; font-size: 12px; font-weight: 200;" fill="rgb(33, 33, 33)" stroke="none" stroke-width="1px">4k</text><text x="84.43892045454545" y="0" dx="0em" dy="0.95em" style="text-anchor: middle; visibility: inherit; font-family: Roboto, sans-serif; font-size: 12px; font-weight: 200;" fill="rgb(33, 33, 33)" stroke="none" stroke-width="1px">6k</text><text x="112.58522727272728" y="0" dx="0em" dy="0.95em" style="text-anchor: middle; visibility: inherit; font-family: Roboto, sans-serif; font-size: 12px; font-weight: 200;" fill="rgb(33, 33, 33)" stroke="none" stroke-width="1px">8k</text><text x="140.7315340909091" y="0" dx="0em" dy="0.95em" style="text-anchor: middle; visibility: inherit; font-family: Roboto, sans-serif; font-size: 12px; font-weight: 200;" fill="rgb(33, 33, 33)" stroke="none" stroke-width="1px">10k</text><text x="168.8778409090909" y="0" dx="0em" dy="0.95em" style="text-anchor: middle; visibility: inherit; font-family: Roboto, sans-serif; font-size: 12px; font-weight: 200;" fill="rgb(33, 33, 33)" stroke="none" stroke-width="1px">12k</text><text x="197.02414772727272" y="0" dx="0em" dy="0.95em" style="text-anchor: middle; visibility: inherit; font-family: Roboto, sans-serif; font-size: 12px; font-weight: 200;" fill="rgb(33, 33, 33)" stroke="none" stroke-width="1px">14k</text><text x="225.17045454545456" y="0" dx="0em" dy="0.95em" style="text-anchor: middle; visibility: inherit; font-family: Roboto, sans-serif; font-size: 12px; font-weight: 200;" fill="rgb(33, 33, 33)" stroke="none" stroke-width="1px">16k</text><text x="253.31676136363637" y="0" dx="0em" dy="0.95em" style="text-anchor: middle; visibility: inherit; font-family: Roboto, sans-serif; font-size: 12px; font-weight: 200;" fill="rgb(33, 33, 33)" stroke="none" stroke-width="1px">18k</text><text x="281.4630681818182" y="0" dx="0em" dy="0.95em" style="text-anchor: middle; visibility: inherit; font-family: Roboto, sans-serif; font-size: 12px; font-weight: 200;" fill="rgb(33, 33, 33)" stroke="none" stroke-width="1px">20k</text><text x="309.609375" y="0" dx="0em" dy="0.95em" style="text-anchor: middle; visibility: hidden; font-family: Roboto, sans-serif; font-size: 12px; font-weight: 200;" fill="rgb(33, 33, 33)" stroke="none" stroke-width="1px">22k</text></g><line x1="0" y1="0" x2="309.609375" y2="0" fill="rgb(0, 0, 0)" stroke="rgb(204, 204, 204)" stroke-width="1px"></line></g></g></g></g></svg>