<svg viewBox="0 0 330 200" xmlns="http://www.w3.org/2000/svg"><g><g><g><g><g><line x1="72.34375" y1="177" x2="67.34375" y2="177" style="visibility: inherit;" fill="rgb(0, 0, 0)" stroke="rgb(204, 204, 204)" stroke-width="1px"></line><line x1="72.34375" y1="157.33333333333331" x2="67.34375" y2="157.33333333333331" style="visibility: inherit;" fill="rgb(0, 0, 0)" stroke="rgb(204, 204, 204)" stroke-width="1px"></line><line x1="72.34375" y1="137.66666666666666" x2="67.34375" y2="137.66666666666666" style="visibility: inherit;" fill="rgb(0, 0, 0)" stroke="rgb(204, 204, 204)" stroke-width="1px"></line><line x1="72.34375" y1="118.00000000000001" x2="67.34375" y2="118.00000000000001" style="visibility: inherit;" fill="rgb(0, 0, 0)" stroke="rgb(204, 204, 204)" stroke-width="1px"></line><line x1="72.34375" y1="98.33333333333331" x2="67.34375" y2="98.33333333333331" style="visibility: inherit;" fill="rgb(0, 0, 0)" stroke="rgb(204, 204, 204)" stroke-width="1px"></line><line x1="72.34375" y1="78.66666666666666" x2="67.34375" y2="78.66666666666666" style="visibility: inherit;" fill="rgb(0, 0, 0)" stroke="rgb(204, 204, 204)" stroke-width="1px"></line><line x1="72.34375" y1="58.999999999999986" x2="67.34375" y2="58.999999999999986" style="visibility: inherit;" fill="rgb(0, 0, 0)" stroke="rgb(204, 204, 204)" stroke-width="1px"></line><line x1="72.34375" y1="39.33333333333333" x2="67.34375" y2="39.33333333333333" style="visibility: inherit;" fill="rgb(0, 0, 0)" stroke="rgb(204, 204, 204)" stroke-width="1px"></line><line x1="72.34375" y1="19.666666666666675" x2="67.34375" y2="19.666666666666675" style="visibility: inherit;" fill="rgb(0, 0, 0)" stroke="rgb(204, 204, 204)" stroke-width="1px"></line></g><g transform="translate(62.34375, 0)"><text x="0" y="177" dx="0em" dy="0.3em" style="text-anchor: end; visibility: hidden; font-family: Roboto, sans-serif; font-size: 12px; font-weight: 200;" fill="rgb(33, 33, 33)" stroke="none" stroke-width="1px">2e-5</text><text x="0" y="157.33333333333331" dx="0em" dy="0.3em" style="text-anchor: end; visibility: inherit; font-family: Roboto, sans-serif; font-size: 12px; font-weight: 200;" fill="rgb(33, 33, 33)" stroke="none" stroke-width="1px">2.5e-5</text><text x="0" y="137.66666666666666" dx="0em" dy="0.3em" style="text-anchor: end; visibility: hidden; font-family: Roboto, sans-serif; font-size: 12px; font-weight: 200;" fill="rgb(33, 33, 33)" stroke="none" stroke-width="1px">3e-5</text><text x="0" y="118.00000000000001" dx="0em" dy="0.3em" style="text-anchor: end; visibility: inherit; font-family: Roboto, sans-serif; font-size: 12px; font-weight: 200;" fill="rgb(33, 33, 33)" stroke="none" stroke-width="1px">3.5e-5</text><text x="0" y="98.33333333333331" dx="0em" dy="0.3em" style="text-anchor: end; visibility: hidden; font-family: Roboto, sans-serif; font-size: 12px; font-weight: 200;" fill="rgb(33, 33, 33)" stroke="none" stroke-width="1px">4e-5</text><text x="0" y="78.66666666666666" dx="0em" dy="0.3em" style="text-anchor: end; visibility: inherit; font-family: Roboto, sans-serif; font-size: 12px; font-weight: 200;" fill="rgb(33, 33, 33)" stroke="none" stroke-width="1px">4.5e-5</text><text x="0" y="58.999999999999986" dx="0em" dy="0.3em" style="text-anchor: end; visibility: hidden; font-family: Roboto, sans-serif; font-size: 12px; font-weight: 200;" fill="rgb(33, 33, 33)" stroke="none" stroke-width="1px">5e-5</text><text x="0" y="39.33333333333333" dx="0em" dy="0.3em" style="text-anchor: end; visibility: inherit; font-family: Roboto, sans-serif; font-size: 12px; font-weight: 200;" fill="rgb(33, 33, 33)" stroke="none" stroke-width="1px">5.5e-5</text><text x="0" y="19.666666666666675" dx="0em" dy="0.3em" style="text-anchor: end; visibility: hidden; font-family: Roboto, sans-serif; font-size: 12px; font-weight: 200;" fill="rgb(33, 33, 33)" stroke="none" stroke-width="1px">6e-5</text></g><line x1="72.34375" y1="0" x2="72.34375" y2="177" fill="rgb(0, 0, 0)" stroke="rgb(204, 204, 204)" stroke-width="1px"></line></g></g><g transform="translate(72, 0)" clip-path="url(#clip_0)"><clipPath id="clip_0"><rect width="257" height="177"></rect></clipPath><g><g><g><line x1="0" y1="0" x2="0" y2="177" fill="rgb(0, 0, 0)" stroke="rgb(66, 66, 66)" stroke-width="1px" opacity="0.25"></line><line x1="23.423295454545457" y1="0" x2="23.423295454545457" y2="177" fill="rgb(0, 0, 0)" stroke="rgb(66, 66, 66)" stroke-width="1px" opacity="0.25"></line><line x1="46.846590909090914" y1="0" x2="46.846590909090914" y2="177" fill="rgb(0, 0, 0)" stroke="rgb(66, 66, 66)" stroke-width="1px" opacity="0.25"></line><line x1="70.26988636363636" y1="0" x2="70.26988636363636" y2="177" fill="rgb(0, 0, 0)" stroke="rgb(66, 66, 66)" stroke-width="1px" opacity="0.25"></line><line x1="93.69318181818183" y1="0" x2="93.69318181818183" y2="177" fill="rgb(0, 0, 0)" stroke="rgb(66, 66, 66)" stroke-width="1px" opacity="0.25"></line><line x1="117.11647727272727" y1="0" x2="117.11647727272727" y2="177" fill="rgb(0, 0, 0)" stroke="rgb(66, 66, 66)" stroke-width="1px" opacity="0.25"></line><line x1="140.53977272727272" y1="0" x2="140.53977272727272" y2="177" fill="rgb(0, 0, 0)" stroke="rgb(66, 66, 66)" stroke-width="1px" opacity="0.25"></line><line x1="163.9630681818182" y1="0" x2="163.9630681818182" y2="177" fill="rgb(0, 0, 0)" stroke="rgb(66, 66, 66)" stroke-width="1px" opacity="0.25"></line><line x1="187.38636363636365" y1="0" x2="187.38636363636365" y2="177" fill="rgb(0, 0, 0)" stroke="rgb(66, 66, 66)" stroke-width="1px" opacity="0.25"></line><line x1="210.8096590909091" y1="0" x2="210.8096590909091" y2="177" fill="rgb(0, 0, 0)" stroke="rgb(66, 66, 66)" stroke-width="1px" opacity="0.25"></line><line x1="234.23295454545453" y1="0" x2="234.23295454545453" y2="177" fill="rgb(0, 0, 0)" stroke="rgb(66, 66, 66)" stroke-width="1px" opacity="0.25"></line><line x1="257.65625" y1="0" x2="257.65625" y2="177" fill="rgb(0, 0, 0)" stroke="rgb(66, 66, 66)" stroke-width="1px" opacity="0.25"></line></g><g><line x1="0" y1="177" x2="257.65625" y2="177" fill="rgb(0, 0, 0)" stroke="rgb(66, 66, 66)" stroke-width="1px" opacity="0.25"></line><line x1="0" y1="157.33333333333331" x2="257.65625" y2="157.33333333333331" fill="rgb(0, 0, 0)" stroke="rgb(66, 66, 66)" stroke-width="1px" opacity="0.25"></line><line x1="0" y1="137.66666666666666" x2="257.65625" y2="137.66666666666666" fill="rgb(0, 0, 0)" stroke="rgb(66, 66, 66)" stroke-width="1px" opacity="0.25"></line><line x1="0" y1="118.00000000000001" x2="257.65625" y2="118.00000000000001" fill="rgb(0, 0, 0)" stroke="rgb(66, 66, 66)" stroke-width="1px" opacity="0.25"></line><line x1="0" y1="98.33333333333331" x2="257.65625" y2="98.33333333333331" fill="rgb(0, 0, 0)" stroke="rgb(66, 66, 66)" stroke-width="1px" opacity="0.25"></line><line x1="0" y1="78.66666666666666" x2="257.65625" y2="78.66666666666666" fill="rgb(0, 0, 0)" stroke="rgb(66, 66, 66)" stroke-width="1px" opacity="0.25"></line><line x1="0" y1="58.999999999999986" x2="257.65625" y2="58.999999999999986" fill="rgb(0, 0, 0)" stroke="rgb(66, 66, 66)" stroke-width="1px" opacity="0.25"></line><line x1="0" y1="39.33333333333333" x2="257.65625" y2="39.33333333333333" fill="rgb(0, 0, 0)" stroke="rgb(66, 66, 66)" stroke-width="1px" opacity="0.25"></line><line x1="0" y1="19.666666666666675" x2="257.65625" y2="19.666666666666675" fill="rgb(0, 0, 0)" stroke="rgb(66, 66, 66)" stroke-width="1px" opacity="0.25"></line></g></g></g><g><g><line x1="0" y1="255.6666666666667" x2="257.65625" y2="255.6666666666667" fill="rgb(0, 0, 0)" stroke="rgb(153, 153, 153)" stroke-width="1.5px"></line></g></g><g><g><line x1="0" y1="0" x2="0" y2="177" fill="rgb(0, 0, 0)" stroke="rgb(153, 153, 153)" stroke-width="1.5px"></line></g></g><g><g><g><g><g><path stroke="rgb(51, 187, 238)" stroke-width="2px" d="M11.711647727272728,199.76904128246196L17.56747159090909,175.66707964683923L23.423295454545457,149.2451402547808L29.279119318181817,120.86708536121785L35.13494318181818,90.90659033908224L40.99076704545455,59.712389419934865L46.846590909090914,27.628947927300572L5.855823863636364,105.86246218546448L11.711647727272728,138.46881395933477L17.56747159090909,144.1134455233939L23.423295454545457,133.71460711816894L29.279119318181817,113.72934088306164L35.13494318181818,88.00161919389862L40.99076704545455,58.828928154388464L46.846590909090914,27.628947927300512L52.70241477272727,15.201014566144003L58.55823863636363,13.06355373021634L64.4140625,16.356365068382477L70.26988636363636,22.3225442479121L76.12571022727273,29.422944461662762L81.9815340909091,36.81962853122399L87.83735795454545,44.07502490787394L93.69318181818183,50.977248722356094L99.54900568181817,57.43924729093923L105.40482954545455,63.440958161739566L111.2606534090909,68.99650452222437L117.11647727272727,74.13588003710373L122.97230113636364,78.89497818750601L128.828125,83.3103479647698L134.68394886363635,87.41661376937425L140.53977272727272,91.2453851521962L146.3955965909091,94.8249231338274L152.25142045454547,98.1802204291159L158.1072443181818,101.33325561989894L163.9630681818182,104.30331163806335L169.81889204545453,107.10732139153043L175.6747159090909,109.76017816454292L181.53053977272728,112.27499626504824L187.38636363636365,114.66337616356437L193.2421875,116.93561508979192L199.09801136363635,119.100867732829L204.95383522727272,121.1673113461885L210.8096590909091,123.14227342948949L216.66548295454547,125.03234840369754L222.5213068181818,126.84346761624181L228.3771306818182,128.5810043053567L234.23295454545453,130.2498308549246L240.0887784090909,131.85437604239036L5.855823863636364,167.60930548110187L11.711647727272728,175.31976179624695L17.56747159090909,166.2035356683782L23.423295454545457,146.9912972128814L29.279119318181817,121.72145708457522L35.13494318181818,92.81705022883125L40.99076704545455,61.731903336622764L46.846590909090914,29.379534893966902L52.70241477272727,16.25347038009816L58.55823863636363,13.695244299018444L64.4140625,16.735178758997787L70.26988636363636,22.549614329317865L76.12571022727273,29.559030749377268L81.9815340909091,36.90118294743675L87.83735795454545,44.12390025954364L93.69318181818183,51.00654122798942L99.54900568181817,57.4568044226712L105.40482954545455,63.451482202956605L111.2606534090909,69.00281326090642L117.11647727272727,74.13966212425218L122.97230113636364,78.89724568627429L128.828125,83.31170748790767L134.68394886363635,87.41742893858402L140.53977272727272,91.2458739490031L146.3955965909091,94.82521624098162L152.25142045454547,98.18039619727521L158.1072443181818,101.33336102659159L163.9630681818182,104.30337485144454L169.81889204545453,107.10735930220609L175.6747159090909,109.76020090109776L181.53053977272728,112.27500990137831L187.38636363636365,114.66338434216976L193.2421875,116.93561999513271L199.09801136363635,119.10087067499148L204.95383522727272,121.16731311088931L210.8096590909091,123.14227448796784L216.66548295454547,125.03234903858811L222.5213068181818,126.8434679970632L228.3771306818182,128.5810045337845L234.23295454545453,130.2498309919438L240.0887784090909,131.8543761245803" style="fill: none;" fill="none"></path></g></g></g></g><g opacity="0.2"><g><g><g><path stroke="rgb(51, 187, 238)" stroke-width="2px" d="M11.711647727272728,186.88544626887114L17.56747159090909,152.52919647664143L23.423295454545457,118.17293952972008L29.279119318181817,83.81669689218202L35.13494318181818,49.46043994526067L40.99076704545455,15.104182998339304L46.846590909090914,-19.149017769998594L11.711647727272728,186.88544626887114L17.56747159090909,152.52919647664143L23.423295454545457,118.17293952972008L29.279119318181817,83.81669689218202L35.13494318181818,49.46043994526067L40.99076704545455,15.104182998339304L46.846590909090914,-19.149017769998594L52.70241477272727,-3.4356263907005697L58.55823863636363,9.85790517739949L64.4140625,21.295080448966452L70.26988636363636,31.271267684797436L76.12571022727273,40.07315537946608L81.9815340909091,47.91441124452587L87.83735795454545,54.957976227703796L93.69318181818183,61.33050268065806L99.54900568181817,67.13219921469377L105.40482954545455,72.44349887338467L111.2606534090909,77.3298098478311L117.11647727272727,81.84493541927077L122.97230113636364,86.03362102930745L128.828125,89.93340019035774L134.68394886363635,93.57601111459857L140.53977272727272,96.98854146463177L146.3955965909091,100.19422967894934L152.25142045454547,103.2131661317156L158.1072443181818,106.06280827056617L163.9630681818182,108.75839558872394L169.81889204545453,111.31333597834842L175.6747159090909,113.73946329943526L181.53053977272728,116.04722340179919L187.38636363636365,118.24594600335695L193.2421875,120.34397347457707L199.09801136363635,122.34874669477963L204.95383522727272,124.26697676473607L210.8096590909091,126.1047165535856L216.66548295454547,127.86746086451846L222.5213068181818,129.56014643477585L228.3771306818182,131.1873093388664L234.23295454545453,132.7530706791828L240.0887784090909,134.261193823535L5.855823863636364,221.24169963844662L11.711647727272728,186.88544626887114L17.56747159090909,152.52919647664143L23.423295454545457,118.17293952972008L29.279119318181817,83.81669689218202L35.13494318181818,49.46043994526067L40.99076704545455,15.104182998339304L46.846590909090914,-19.149017769998594L52.70241477272727,-3.4356263907005697L58.55823863636363,9.85790517739949L64.4140625,21.295080448966452L70.26988636363636,31.271267684797436L76.12571022727273,40.07315537946608L81.9815340909091,47.91441124452587L87.83735795454545,54.957976227703796L93.69318181818183,61.33050268065806L99.54900568181817,67.13219921469377L105.40482954545455,72.44349887338467L111.2606534090909,77.3298098478311L117.11647727272727,81.84493541927077L122.97230113636364,86.03362102930745L128.828125,89.93340019035774L134.68394886363635,93.57601111459857L140.53977272727272,96.98854146463177L146.3955965909091,100.19422967894934L152.25142045454547,103.2131661317156L158.1072443181818,106.06280827056617L163.9630681818182,108.75839558872394L169.81889204545453,111.31333597834842L175.6747159090909,113.73946329943526L181.53053977272728,116.04722340179919L187.38636363636365,118.24594600335695L193.2421875,120.34397347457707L199.09801136363635,122.34874669477963L204.95383522727272,124.26697676473607L210.8096590909091,126.1047165535856L216.66548295454547,127.86746086451846L222.5213068181818,129.56014643477585L228.3771306818182,131.1873093388664L234.23295454545453,132.7530706791828L240.0887784090909,134.261193823535" style="fill: none;" fill="none"></path></g></g></g></g></g></g><g transform="translate(72, 177)" clip-path="url(#clip_1)"><clipPath id="clip_1"><rect width="257" height="23"></rect></clipPath><g><g><line x1="0" y1="0" x2="0" y2="5" style="visibility: inherit;" fill="rgb(0, 0, 0)" stroke="rgb(204, 204, 204)" stroke-width="1px"></line><line x1="23.423295454545457" y1="0" x2="23.423295454545457" y2="5" style="visibility: inherit;" fill="rgb(0, 0, 0)" stroke="rgb(204, 204, 204)" stroke-width="1px"></line><line x1="46.846590909090914" y1="0" x2="46.846590909090914" y2="5" style="visibility: inherit;" fill="rgb(0, 0, 0)" stroke="rgb(204, 204, 204)" stroke-width="1px"></line><line x1="70.26988636363636" y1="0" x2="70.26988636363636" y2="5" style="visibility: inherit;" fill="rgb(0, 0, 0)" stroke="rgb(204, 204, 204)" stroke-width="1px"></line><line x1="93.69318181818183" y1="0" x2="93.69318181818183" y2="5" style="visibility: inherit;" fill="rgb(0, 0, 0)" stroke="rgb(204, 204, 204)" stroke-width="1px"></line><line x1="117.11647727272727" y1="0" x2="117.11647727272727" y2="5" style="visibility: inherit;" fill="rgb(0, 0, 0)" stroke="rgb(204, 204, 204)" stroke-width="1px"></line><line x1="140.53977272727272" y1="0" x2="140.53977272727272" y2="5" style="visibility: inherit;" fill="rgb(0, 0, 0)" stroke="rgb(204, 204, 204)" stroke-width="1px"></line><line x1="163.9630681818182" y1="0" x2="163.9630681818182" y2="5" style="visibility: inherit;" fill="rgb(0, 0, 0)" stroke="rgb(204, 204, 204)" stroke-width="1px"></line><line x1="187.38636363636365" y1="0" x2="187.38636363636365" y2="5" style="visibility: inherit;" fill="rgb(0, 0, 0)" stroke="rgb(204, 204, 204)" stroke-width="1px"></line><line x1="210.8096590909091" y1="0" x2="210.8096590909091" y2="5" style="visibility: inherit;" fill="rgb(0, 0, 0)" stroke="rgb(204, 204, 204)" stroke-width="1px"></line><line x1="234.23295454545453" y1="0" x2="234.23295454545453" y2="5" style="visibility: inherit;" fill="rgb(0, 0, 0)" stroke="rgb(204, 204, 204)" stroke-width="1px"></line><line x1="257.65625" y1="0" x2="257.65625" y2="5" style="visibility: inherit;" fill="rgb(0, 0, 0)" stroke="rgb(204, 204, 204)" stroke-width="1px"></line></g><g transform="translate(0, 8)"><text x="0" y="0" dx="0em" dy="0.95em" style="text-anchor: middle; visibility: hidden; font-family: Roboto, sans-serif; font-size: 12px; font-weight: 200;" fill="rgb(33, 33, 33)" stroke="none" stroke-width="1px">0</text><text x="23.423295454545457" y="0" dx="0em" dy="0.95em" style="text-anchor: middle; visibility: inherit; font-family: Roboto, sans-serif; font-size: 12px; font-weight: 200;" fill="rgb(33, 33, 33)" stroke="none" stroke-width="1px">2k</text><text x="46.846590909090914" y="0" dx="0em" dy="0.95em" style="text-anchor: middle; visibility: hidden; font-family: Roboto, sans-serif; font-size: 12px; font-weight: 200;" fill="rgb(33, 33, 33)" stroke="none" stroke-width="1px">4k</text><text x="70.26988636363636" y="0" dx="0em" dy="0.95em" style="text-anchor: middle; visibility: inherit; font-family: Roboto, sans-serif; font-size: 12px; font-weight: 200;" fill="rgb(33, 33, 33)" stroke="none" stroke-width="1px">6k</text><text x="93.69318181818183" y="0" dx="0em" dy="0.95em" style="text-anchor: middle; visibility: hidden; font-family: Roboto, sans-serif; font-size: 12px; font-weight: 200;" fill="rgb(33, 33, 33)" stroke="none" stroke-width="1px">8k</text><text x="117.11647727272727" y="0" dx="0em" dy="0.95em" style="text-anchor: middle; visibility: inherit; font-family: Roboto, sans-serif; font-size: 12px; font-weight: 200;" fill="rgb(33, 33, 33)" stroke="none" stroke-width="1px">10k</text><text x="140.53977272727272" y="0" dx="0em" dy="0.95em" style="text-anchor: middle; visibility: hidden; font-family: Roboto, sans-serif; font-size: 12px; font-weight: 200;" fill="rgb(33, 33, 33)" stroke="none" stroke-width="1px">12k</text><text x="163.9630681818182" y="0" dx="0em" dy="0.95em" style="text-anchor: middle; visibility: inherit; font-family: Roboto, sans-serif; font-size: 12px; font-weight: 200;" fill="rgb(33, 33, 33)" stroke="none" stroke-width="1px">14k</text><text x="187.38636363636365" y="0" dx="0em" dy="0.95em" style="text-anchor: middle; visibility: hidden; font-family: Roboto, sans-serif; font-size: 12px; font-weight: 200;" fill="rgb(33, 33, 33)" stroke="none" stroke-width="1px">16k</text><text x="210.8096590909091" y="0" dx="0em" dy="0.95em" style="text-anchor: middle; visibility: inherit; font-family: Roboto, sans-serif; font-size: 12px; font-weight: 200;" fill="rgb(33, 33, 33)" stroke="none" stroke-width="1px">18k</text><text x="234.23295454545453" y="0" dx="0em" dy="0.95em" style="text-anchor: middle; visibility: hidden; font-family: Roboto, sans-serif; font-size: 12px; font-weight: 200;" fill="rgb(33, 33, 33)" stroke="none" stroke-width="1px">20k</text><text x="257.65625" y="0" dx="0em" dy="0.95em" style="text-anchor: middle; visibility: hidden; font-family: Roboto, sans-serif; font-size: 12px; font-weight: 200;" fill="rgb(33, 33, 33)" stroke="none" stroke-width="1px">22k</text></g><line x1="0" y1="0" x2="257.65625" y2="0" fill="rgb(0, 0, 0)" stroke="rgb(204, 204, 204)" stroke-width="1px"></line></g></g></g></g></svg>